<svg xmlns="http://www.w3.org/2000/svg" width="98" height="28" viewBox="0 0 98 28" fill="none"><g clip-path="url(#clip0_487_666)"><path d="M3.41247 14.6069C3.41247 16.8567 5.12529 18.4205 7.02543 18.4205C8.95233 18.4205 10.558 16.747 10.558 14.6069C10.558 12.4669 8.95233 10.8755 7.02543 10.8755C5.23233 10.8755 3.41247 12.3571 3.41247 14.6069ZM3.35895 9.94271C4.21536 8.57088 5.95493 7.91239 7.53388 7.91239C10.8256 7.91239 13.6624 10.5189 13.6624 14.6343C13.6624 18.7224 10.7989 21.3837 7.50712 21.3837C6.00846 21.3837 4.21536 20.6978 3.35895 19.3259V21.0544H0.254578V1.2728H3.35895V9.94271Z" fill="#ffffff"></path><path d="M18.9702 14.6343C18.9702 16.692 20.4956 18.4205 22.5296 18.4205C24.4565 18.4205 26.1158 16.7743 26.1158 14.6343C26.1158 12.4394 24.3494 10.8755 22.5028 10.8755C20.4956 10.8755 18.9702 12.5765 18.9702 14.6343ZM21.9676 7.91238C23.6804 7.91238 25.3397 8.6806 26.1693 10.025V8.24163H29.2737V21.0544H26.1693V19.0516C25.3397 20.4509 23.6804 21.3837 21.8873 21.3837C18.542 21.3837 15.8658 18.6126 15.8658 14.6343C15.8658 10.7657 18.435 7.91238 21.9676 7.91238Z" fill="#ffffff"></path><path d="M40.3198 1.3095L33.3512 27.0274L30.2468 27.0274L37.2153 1.3095L40.3198 1.3095Z" fill="#ffffff"></path><path d="M42.957 14.6343C42.957 16.692 44.4825 18.4205 46.5164 18.4205C48.4433 18.4205 50.1026 16.7743 50.1026 14.6343C50.1026 12.4394 48.3363 10.8755 46.4896 10.8755C44.4825 10.8755 42.957 12.5765 42.957 14.6343ZM45.9544 7.91238C47.6672 7.91238 49.3265 8.6806 50.1561 10.025V8.24163H53.2605V21.0544H50.1561V19.0516C49.3265 20.4509 47.6672 21.3837 45.8741 21.3837C42.5289 21.3837 39.8527 18.6126 39.8527 14.6343C39.8527 10.7657 42.4218 7.91238 45.9544 7.91238Z" fill="#ffffff"></path><path d="M59.8106 10.2719C60.4529 8.6532 62.4065 7.91235 63.6911 7.91235C66.9026 7.91235 68.6956 10.1348 68.6956 13.8661V21.0545H65.5913V14.0855C65.5913 12.0278 64.3869 10.9304 62.9953 10.9304C61.5769 10.9304 59.8106 11.7809 59.8106 14.2502V21.0545H56.7062V8.2416H59.8106V10.2719Z" fill="#ffffff"></path><path d="M82.984 18.9144C81.8332 20.3959 80.0669 21.3837 77.8992 21.3837C74.2863 21.3837 71.1016 18.6949 71.1016 14.6343C71.1016 10.5737 74.2863 7.91238 77.8992 7.91238C80.0669 7.91238 81.8332 8.90011 82.984 10.3817L80.7895 12.165C80.1471 11.3694 79.0767 10.8755 77.9527 10.8755C75.7849 10.8755 74.2328 12.4668 74.2328 14.6343C74.2328 16.7743 75.7849 18.4205 77.9527 18.4205C79.0767 18.4205 80.1471 17.9266 80.7895 17.131L82.984 18.9144Z" fill="#ffffff"></path><path d="M90.8946 10.7384C89.2354 10.7384 87.8705 11.5889 87.4959 13.5368H94.1595C93.9722 11.7809 92.6341 10.7384 90.8946 10.7384ZM90.8679 7.91245C94.4272 7.91245 97.2372 10.5189 97.2372 14.5246C97.2372 14.8812 97.2104 15.2928 97.1837 15.7592H87.4959C87.8437 17.5426 89.1818 18.5028 91.0552 18.5028C92.3933 18.5028 93.7046 17.8993 94.4272 16.8567L96.5146 18.4754C95.3638 20.341 93.1426 21.3836 90.8679 21.3836C87.148 21.3836 84.3112 18.64 84.3112 14.6343C84.3112 10.5463 87.2818 7.91245 90.8679 7.91245Z" fill="#ffffff"></path></g><defs><clipPath id="clip0_487_666"><rect width="97.5758" height="28" fill="white"></rect></clipPath></defs></svg>
