<svg width="242" height="49" viewBox="0 0 242 49" fill="none" xmlns="http://www.w3.org/2000/svg">
<g clip-path="url(#clip0_3_366)">
<path d="M8.57869 8.90086L32.6202 5.47652C32.6202 5.12105 32.6202 4.81298 32.6202 4.576C32.6202 0.499968 28.3664 0.962076 28.3664 0.962076L3.85097 4.44566C0.284441 5.1566 0.61621 9.14968 0.61621 9.14968L0.438477 35.0988C0.438477 39.7436 4.5856 38.9023 4.5856 38.9023L5.1662 38.8194L5.33208 13.593C5.33208 13.593 5.00031 9.59994 8.56684 8.88901L8.57869 8.90086Z" stroke="url(#paint0_linear_3_366)" stroke-width="0.88867" stroke-miterlimit="10"/>
<path d="M42.1347 13.6644C42.1347 9.58835 37.8809 10.0505 37.8809 10.0505L37.3596 10.1215C37.3596 16.0934 37.4544 35.3479 37.4544 35.3479C37.4544 35.3479 37.2529 38.9144 34.1367 39.8268L9.96484 43.2511V44.1754C9.96484 48.8201 14.112 47.9789 14.112 47.9789L38.9236 44.4597C42.028 43.5592 42.2413 39.9808 42.2413 39.9808C42.2413 39.9808 42.1465 17.7286 42.1465 13.6407L42.1347 13.6644Z" stroke="url(#paint1_linear_3_366)" stroke-width="0.88867" stroke-miterlimit="10"/>
<path d="M37.4426 35.3597C37.4426 35.3597 37.3597 16.0933 37.3478 10.1333L32.632 10.8087C32.6557 18.8067 32.7149 30.9282 32.7149 30.9282C32.7149 30.9282 32.5135 34.4947 29.3972 35.4071L9.98867 38.156L9.95312 43.2747L34.1249 39.8504C37.2294 38.9499 37.4426 35.3715 37.4426 35.3715V35.3597Z" stroke="url(#paint2_linear_3_366)" stroke-width="0.88867" stroke-miterlimit="10"/>
<path d="M10.1306 18.238C10.1306 18.238 9.79882 14.2449 13.3653 13.534L32.6435 10.785C32.6435 8.58111 32.6317 6.69713 32.6317 5.46484L8.57838 8.90103C5.01185 9.61197 5.34362 13.6051 5.34362 13.6051L5.17773 38.8314L10.0002 38.1442L10.1306 18.2498V18.238Z" stroke="url(#paint3_linear_3_366)" stroke-width="0.88867" stroke-miterlimit="10"/>
<path d="M10.1303 18.2381L10 38.1325L29.4085 35.3835C32.513 34.483 32.7262 30.9046 32.7262 30.9046C32.7262 30.9046 32.6788 18.7832 32.6433 10.7852L13.3651 13.5341C9.79857 14.245 10.1303 18.2381 10.1303 18.2381Z" stroke="url(#paint4_linear_3_366)" stroke-width="0.88867" stroke-miterlimit="10"/>
<path d="M63.1191 11.3184H69.091V22.5274H81.2006V11.3184H87.1725V39.2463H81.2006V27.5632H69.091V39.2463H63.1191V11.3184Z" fill="#FFFFFF"/>
<path d="M103.702 39.246L103.785 36.5563C102.256 38.9379 100.313 39.9925 97.339 39.9925C92.4928 39.9925 89.0566 36.1297 89.0566 29.9209C89.0566 23.7121 92.1847 19.9204 97.5286 19.9204C100.301 19.9204 102.375 21.1645 103.82 23.6291V20.5484H108.975V39.2579H103.702V39.246ZM99.3297 24.3993C96.3556 24.3993 94.5664 26.4255 94.5664 29.8617C94.5664 33.2978 96.32 35.2174 99.2941 35.2174C102.268 35.2174 104.022 33.2978 104.022 29.8617C104.022 26.4255 102.15 24.3993 99.3297 24.3993Z" fill="#FFFFFF"/>
<path d="M124.521 20.1457L123.703 25.999C122.921 25.6436 122.068 25.4895 121.167 25.4895C117.696 25.4895 116.523 27.2432 116.523 30.9993V39.2461H111.096V20.5367H116.451L116.333 25.3355C117.423 21.6979 119.497 19.9087 122.506 19.9087C123.087 19.9087 123.75 20.0272 124.532 20.1457H124.521Z" fill="#FFFFFF"/>
<path d="M126.356 39.2461V20.5367H131.783V23.4634C133.537 20.9988 135.456 19.9087 138.075 19.9087C141.156 19.9087 143.111 21.2002 143.928 23.7359C145.682 21.2002 147.874 19.9087 150.493 19.9087C153.111 19.9087 154.983 20.8803 156.002 22.8354C156.749 24.2454 156.749 25.8095 156.749 27.7171V39.2343H151.322V29.9803C151.322 26.3427 150.967 24.3165 148.194 24.3165C145.22 24.3165 144.213 26.5796 144.213 30.9993V39.2461H138.786V29.9921C138.786 26.4019 138.395 24.3639 135.895 24.3639C132.885 24.3639 131.795 26.5915 131.795 30.9993V39.2461H126.368H126.356Z" fill="#FFFFFF"/>
<path d="M168.575 39.9808C162.331 39.9808 158.112 35.5256 158.112 29.9447C158.112 24.3639 162.485 19.9087 168.575 19.9087C174.665 19.9087 179.002 24.2099 179.002 29.9447C179.002 35.6796 174.701 39.9808 168.575 39.9808ZM168.539 24.9089C165.459 24.9089 163.622 26.8996 163.622 29.9092C163.622 32.9188 165.542 34.945 168.539 34.945C171.537 34.945 173.457 32.9899 173.457 29.9092C173.457 26.8285 171.62 24.9089 168.539 24.9089Z" fill="#FFFFFF"/>
<path d="M181.147 20.5367H186.455V23.4634C188.446 20.9988 190.555 19.9087 193.363 19.9087C196.171 19.9087 198.209 20.8803 199.335 22.8828C200.081 24.2454 200.117 25.7384 200.117 27.729V39.2461H194.69V29.9921C194.69 26.4375 194.382 24.3283 191.135 24.3283C189.607 24.3283 188.327 24.9919 187.498 26.1294C186.597 27.338 186.562 28.6651 186.562 30.2647V39.2461H181.135V20.5367H181.147Z" fill="#FFFFFF"/>
<path d="M200.412 20.5366H206.704L209.95 29.0915C210.377 30.1816 210.65 31.5917 210.815 33.2742C211.088 31.6746 211.515 30.2646 211.989 28.902L214.844 20.5485H221.053L209.927 47.7773H203.908L207.972 37.8124L200.436 20.5485L200.412 20.5366Z" fill="#FFFFFF"/>
<path d="M235.947 39.246L236.03 36.5563C234.501 38.9379 232.558 39.9925 229.584 39.9925C224.738 39.9925 221.302 36.1297 221.302 29.9209C221.302 23.7121 224.43 19.9204 229.774 19.9204C232.546 19.9204 234.62 21.1645 236.066 23.6291V20.5484H241.22V39.2579H235.947V39.246ZM231.575 24.3993C228.601 24.3993 226.812 26.4255 226.812 29.8617C226.812 33.2978 228.565 35.2174 231.539 35.2174C234.513 35.2174 236.267 33.2978 236.267 29.8617C236.267 26.4255 234.395 24.3993 231.575 24.3993Z" fill="#FFFFFF"/>
</g>
<defs>
<linearGradient id="paint0_linear_3_366" x1="6.63004e-05" y1="19.9559" x2="33.0704" y2="19.9559" gradientUnits="userSpaceOnUse">
<stop stop-color="#969595"/>
<stop offset="0.15" stop-color="#D2D2D2"/>
<stop offset="1" stop-color="#D5D4D4"/>
</linearGradient>
<linearGradient id="paint1_linear_3_366" x1="9.51458" y1="29.0443" x2="42.6679" y2="29.0443" gradientUnits="userSpaceOnUse">
<stop stop-color="#89C666"/>
<stop offset="0.94" stop-color="#27BFD4"/>
</linearGradient>
<linearGradient id="paint2_linear_3_366" x1="9.51471" y1="26.6981" x2="37.881" y2="26.6981" gradientUnits="userSpaceOnUse">
<stop stop-color="#DBE8A5"/>
<stop offset="1" stop-color="#A6D06A"/>
</linearGradient>
<linearGradient id="paint3_linear_3_366" x1="4.72748" y1="22.1481" x2="33.082" y2="22.1481" gradientUnits="userSpaceOnUse">
<stop stop-color="#CACAC9"/>
<stop offset="0.15" stop-color="#D2D2D2"/>
<stop offset="1" stop-color="#D5D4D4"/>
</linearGradient>
<linearGradient id="paint4_linear_3_366" x1="9.54974" y1="24.4707" x2="33.1528" y2="24.4707" gradientUnits="userSpaceOnUse">
<stop stop-color="#F492A2"/>
<stop offset="0.71" stop-color="#FFC718"/>
</linearGradient>
<clipPath id="clip0_3_366">
<rect width="241.22" height="48" fill="white" transform="translate(0 0.5)"/>
</clipPath>
</defs>
</svg>
