<svg width="100%" height="100%" viewBox="0 0 103 24" fill="none" xmlns="http://www.w3.org/2000/svg">
<path d="M15.2692 12.2161L7.63462 23.5354L0 12.2161H3.97383C4.67627 12.2161 5.33279 12.5652 5.72561 13.1476L7.63462 15.9775L9.54261 13.1479C9.93541 12.5654 10.592 12.2161 11.2946 12.2161H15.2692ZM3.13556 5.87695H12.1316C12.9919 5.87695 13.7663 6.39848 14.0897 7.19565L15.2692 10.1031H0L1.17697 7.19687C1.48602 6.43374 2.20828 5.92287 3.0238 5.87989L3.13556 5.87695Z" fill="#2969FF"></path>
<path d="M46.576 6.10204C51.548 6.10204 55.0284 10.0046 55.0284 14.8186C55.0284 15.268 54.9986 15.7092 54.94 16.14L42.4648 16.1395C42.8528 18.2703 44.2233 19.8372 46.576 19.8372C48.1707 19.8372 49.431 19.2248 50.1799 18.2527L54.6448 18.2529C53.4068 21.3718 50.2999 23.5351 46.576 23.5351C41.604 23.5351 38.1236 19.6326 38.1236 14.8186C38.1236 10.0046 41.604 6.10204 46.576 6.10204ZM24.8951 6.63031L29.143 17.3575L33.3908 6.63031H38.0164L31.3633 23.0068H26.9258L20.2695 6.63031H24.8951ZM60.3735 2.40359L61.896 2.40411V6.63031H66.1222V10.3282H61.896V17.1958C61.896 18.3628 62.842 19.3089 64.0091 19.3089H66.1222V23.0068H64.0091C60.508 23.0068 57.6698 20.1686 57.6698 16.6675V10.3282H55.0284L60.3735 2.40359ZM46.576 9.79996C44.4223 9.79996 43.0917 11.1129 42.5843 12.9697H50.5677C50.0603 11.1129 48.7298 9.79996 46.576 9.79996ZM93.5925 6.10204C97.3051 6.10204 100.186 8.27805 101.407 11.3847L96.848 11.3847C96.1448 10.4093 95.0597 9.79996 93.5925 9.79996C90.775 9.79996 89.3663 12.0469 89.3663 14.8186C89.3663 17.5903 90.775 19.8372 93.5925 19.8372C95.0594 19.8372 96.1445 19.2281 96.8476 18.2529L101.407 18.2529C100.186 21.3593 97.3049 23.5351 93.5925 23.5351C88.6205 23.5351 85.1401 19.6326 85.1401 14.8186C85.1401 10.0046 88.6205 6.10204 93.5925 6.10204ZM68.2353 23.0068H72.4615V12.4413C72.4615 11.2743 73.4075 10.3282 74.5746 10.3282H76.6877V6.63031H74.5746C71.0735 6.63031 68.2353 9.46851 68.2353 12.9696V23.0068ZM78.8008 6.63031H83.027V23.0068H78.8008V6.63031ZM78.8008 0.291016H83.027V4.51721H78.8008V0.291016Z" fill="white"></path>
</svg>